<svg width="68" height="32" viewBox="0 0 68 32" fill="none" xmlns="http://www.w3.org/2000/svg">
<g id="logo">
<path d="M4.36145 0V24.6747H0V0H4.36145Z" fill="#FF6600"/>
<path d="M16.9187 25.0361C15.1114 25.0361 13.5452 24.6386 12.2199 23.8434C10.8946 23.0482 9.86646 21.9357 9.13554 20.506C8.41265 19.0763 8.0512 17.4056 8.0512 15.494C8.0512 13.5823 8.41265 11.9076 9.13554 10.4699C9.86646 9.03213 10.8946 7.91566 12.2199 7.12048C13.5452 6.3253 15.1114 5.92771 16.9187 5.92771C18.7259 5.92771 20.2922 6.3253 21.6175 7.12048C22.9428 7.91566 23.9669 9.03213 24.6898 10.4699C25.4207 11.9076 25.7861 13.5823 25.7861 15.494C25.7861 17.4056 25.4207 19.0763 24.6898 20.506C23.9669 21.9357 22.9428 23.0482 21.6175 23.8434C20.2922 24.6386 18.7259 25.0361 16.9187 25.0361ZM16.9428 21.5422C17.9227 21.5422 18.742 21.2731 19.4006 20.7349C20.0592 20.1888 20.5492 19.4578 20.8705 18.5422C21.1998 17.6265 21.3645 16.6064 21.3645 15.4819C21.3645 14.3494 21.1998 13.3253 20.8705 12.4096C20.5492 11.4859 20.0592 10.751 19.4006 10.2048C18.742 9.65863 17.9227 9.38554 16.9428 9.38554C15.9388 9.38554 15.1034 9.65863 14.4367 10.2048C13.7781 10.751 13.2841 11.4859 12.9548 12.4096C12.6335 13.3253 12.4729 14.3494 12.4729 15.4819C12.4729 16.6064 12.6335 17.6265 12.9548 18.5422C13.2841 19.4578 13.7781 20.1888 14.4367 20.7349C15.1034 21.2731 15.9388 21.5422 16.9428 21.5422Z" fill="#FF6600"/>
<path d="M37.5361 32C35.9699 32 34.6245 31.7871 33.5 31.3614C32.3755 30.9438 31.4719 30.3815 30.7892 29.6747C30.1064 28.9679 29.6325 28.1847 29.3675 27.3253L33.2952 26.3735C33.4719 26.7349 33.7289 27.0924 34.0663 27.4458C34.4036 27.8072 34.8574 28.1044 35.4277 28.3373C36.006 28.5783 36.7329 28.6988 37.6084 28.6988C38.8454 28.6988 39.8695 28.3976 40.6807 27.7952C41.492 27.2008 41.8976 26.2209 41.8976 24.8554V21.3494H41.6807C41.4558 21.7992 41.1265 22.261 40.6928 22.7349C40.2671 23.2088 39.7008 23.6064 38.994 23.9277C38.2952 24.249 37.4157 24.4096 36.3554 24.4096C34.9337 24.4096 33.6446 24.0763 32.4879 23.4096C31.3394 22.7349 30.4237 21.7309 29.741 20.3976C29.0663 19.0562 28.7289 17.3775 28.7289 15.3614C28.7289 13.3293 29.0663 11.6145 29.741 10.2169C30.4237 8.81124 31.3434 7.74699 32.5 7.0241C33.6566 6.29317 34.9458 5.92771 36.3675 5.92771C37.4518 5.92771 38.3434 6.11245 39.0422 6.48193C39.749 6.84337 40.3112 7.28112 40.7289 7.79518C41.1466 8.3012 41.4639 8.77912 41.6807 9.22892H41.9217V6.16867H46.2229V24.9759C46.2229 26.5582 45.8454 27.8675 45.0904 28.9036C44.3353 29.9398 43.3032 30.7149 41.994 31.2289C40.6847 31.743 39.1988 32 37.5361 32ZM37.5723 20.988C38.496 20.988 39.2831 20.7631 39.9337 20.3133C40.5843 19.8635 41.0783 19.2169 41.4157 18.3735C41.753 17.5301 41.9217 16.5181 41.9217 15.3373C41.9217 14.1727 41.753 13.1526 41.4157 12.2771C41.0863 11.4016 40.5964 10.7229 39.9458 10.241C39.3032 9.751 38.512 9.50602 37.5723 9.50602C36.6004 9.50602 35.7892 9.75904 35.1385 10.2651C34.4879 10.7711 33.998 11.4659 33.6687 12.3494C33.3394 13.2249 33.1747 14.2209 33.1747 15.3373C33.1747 16.4699 33.3394 17.4618 33.6687 18.3133C34.006 19.1566 34.5 19.8153 35.1506 20.2892C35.8092 20.755 36.6165 20.988 37.5723 20.988Z" fill="#FF6600"/>
<path d="M58.7651 25.0361C56.9578 25.0361 55.3916 24.6386 54.0663 23.8434C52.741 23.0482 51.7128 21.9357 50.9819 20.506C50.259 19.0763 49.8976 17.4056 49.8976 15.494C49.8976 13.5823 50.259 11.9076 50.9819 10.4699C51.7128 9.03213 52.741 7.91566 54.0663 7.12048C55.3916 6.3253 56.9578 5.92771 58.7651 5.92771C60.5723 5.92771 62.1385 6.3253 63.4639 7.12048C64.7892 7.91566 65.8132 9.03213 66.5361 10.4699C67.2671 11.9076 67.6325 13.5823 67.6325 15.494C67.6325 17.4056 67.2671 19.0763 66.5361 20.506C65.8132 21.9357 64.7892 23.0482 63.4639 23.8434C62.1385 24.6386 60.5723 25.0361 58.7651 25.0361ZM58.7892 21.5422C59.7691 21.5422 60.5883 21.2731 61.247 20.7349C61.9056 20.1888 62.3956 19.4578 62.7169 18.5422C63.0462 17.6265 63.2108 16.6064 63.2108 15.4819C63.2108 14.3494 63.0462 13.3253 62.7169 12.4096C62.3956 11.4859 61.9056 10.751 61.247 10.2048C60.5883 9.65863 59.7691 9.38554 58.7892 9.38554C57.7851 9.38554 56.9498 9.65863 56.2831 10.2048C55.6245 10.751 55.1305 11.4859 54.8012 12.4096C54.4799 13.3253 54.3193 14.3494 54.3193 15.4819C54.3193 16.6064 54.4799 17.6265 54.8012 18.5422C55.1305 19.4578 55.6245 20.1888 56.2831 20.7349C56.9498 21.2731 57.7851 21.5422 58.7892 21.5422Z" fill="#FF6600"/>
</g>
</svg>
